<svg width="237" height="254" viewBox="0 0 237 254" fill="none" xmlns="http://www.w3.org/2000/svg">
<path fill-rule="evenodd" clip-rule="evenodd" d="M53.4856 1.17217C73.4856 2.37217 85.4856 19.3389 88.9856 27.6722C90.1523 30.5056 92.1856 40.0722 90.9856 55.6722C93.6652 55.7384 97.0775 56.0619 100.986 56.732C107.366 57.8259 115.067 59.8434 123.059 63.1722C125.187 64.0585 127.336 65.0378 129.486 66.1173C131.658 67.2082 133.831 68.4015 135.986 69.7047C143.499 74.2497 150.783 80.1321 156.986 87.6722C164.186 96.0722 165.986 98.5055 165.986 98.6722L146.986 113.672C140.986 106.839 126.886 92.0722 118.486 87.6722L144.368 131.172L177.986 187.672L156.986 201.172C154.819 203.172 151.386 208.772 154.986 215.172L141.186 192.172L133.686 179.672L129.486 172.672C126.486 166.172 112.986 170.172 118.486 180.172C120.581 183.982 123.209 188.514 125.986 193.206C129.326 198.85 132.881 204.726 135.986 209.857C138.608 214.189 140.908 217.99 142.486 220.672C138.886 214.672 132.319 215.839 129.486 217.172L107.986 229.172L73.9856 172.172L48.4856 128.172C46.8856 136.972 53.4856 156.839 56.9856 165.672C56.6523 165.839 51.9856 168.272 35.9856 176.672C29.2988 164.101 26.04 151.664 24.9573 140.172H35.4856L35.9856 118.172H25.3895C26.4194 110.445 28.2665 103.646 30.3205 98.1722C31.6772 94.5564 33.1242 91.5185 34.4856 89.1722C28.6951 87.9532 19.0778 83.3904 11.7255 73.6722C7.01558 67.4466 3.23512 59.1054 1.98564 48.1722C-0.414364 28.1722 12.9856 13.1722 19.9856 8.17217C22.819 5.33883 33.4856 -0.027834 53.4856 1.17217ZM37.9856 75.6722C44.6522 74.5055 61.8855 68.1722 77.4855 52.1722C80.6855 12.5722 51.1522 9.67218 35.9856 13.1722C28.4856 15.3388 13.5856 24.5722 13.9856 44.1722C14.3856 63.7722 30.1522 73.3388 37.9856 75.6722ZM74.9856 145.672C76.8189 147.839 82.0856 151.172 88.4856 147.172C94.8856 143.172 110.486 133.839 117.486 129.672C119.652 128.506 122.986 124.372 118.986 117.172C114.986 109.972 107.319 97.1722 103.986 91.6722C102.486 89.3388 97.7856 85.6722 90.9856 89.6722C84.1856 93.6722 68.8189 103.006 61.9856 107.172C59.5313 108.839 55.5954 113.772 59.4856 120.172L60.7013 122.172L67.6915 133.672L74.9856 145.672Z" fill="#FE6700"/>
<path fill-rule="evenodd" clip-rule="evenodd" d="M74.9856 145.672C76.8189 147.839 82.0856 151.172 88.4856 147.172C94.8856 143.172 110.486 133.839 117.486 129.672C119.652 128.506 122.986 124.372 118.986 117.172C114.986 109.972 107.319 97.1722 103.986 91.6722C102.486 89.3388 97.7856 85.6722 90.9856 89.6722C84.1856 93.6722 68.8189 103.006 61.9856 107.172C59.5313 108.839 55.5954 113.772 59.4856 120.172L60.7013 122.172L67.6915 133.672L74.9856 145.672ZM108.486 119.172C107.486 116.672 103.986 115.839 101.986 117.172C99.9856 118.506 99.9856 121.672 101.486 123.672C103.736 126.672 107.019 125.022 107.486 124.672C109.486 123.172 109.086 120.672 108.486 119.172Z" fill="#4D1489"/>
<path d="M34.4856 89.1722C44.819 88.1722 70.5856 80.0722 90.9856 55.6722M34.4856 89.1722C28.6951 87.9532 19.0778 83.3904 11.7255 73.6722M34.4856 89.1722C33.1242 91.5185 31.6772 94.5564 30.3205 98.1722M90.9856 55.6722C92.1856 40.0722 90.1523 30.5056 88.9856 27.6722M90.9856 55.6722C93.6652 55.7384 97.0775 56.0619 100.986 56.732M88.9856 27.6722C95.319 25.0056 105.986 19.1722 115.486 35.6722C118.574 40.9054 121.196 45.3735 123.414 49.1722M88.9856 27.6722C85.4856 19.3389 73.4856 2.37217 53.4856 1.17217C33.4856 -0.027834 22.819 5.33883 19.9856 8.17217C12.9856 13.1722 -0.414364 28.1722 1.98564 48.1722C3.23512 59.1054 7.01558 67.4466 11.7255 73.6722M123.414 49.1722C127.771 51.3388 138.086 53.8722 144.486 46.6722C154.486 40.2722 164.319 47.0055 167.986 51.1722C174.319 57.0055 189.286 64.7722 198.486 49.1722C200.086 46.3722 203.486 40.3388 204.986 37.6722C206.319 34.8388 210.286 29.3722 215.486 30.1722C221.886 30.1722 224.486 30.1722 224.986 30.1722C227.652 30.1722 233.186 28.8722 233.986 23.6722M123.414 49.1722L135.986 69.7047M50.9856 22.1722C55.8189 25.5055 65.5855 35.0722 65.9855 46.6722M11.7255 73.6722L3.48555 83.1722C1.40556 87.3388 -1.30643 97.5722 4.48555 105.172L24.7898 138.172M35.9856 176.672C51.9856 168.272 56.6523 165.839 56.9856 165.672M35.9856 176.672C37.9856 183.506 44.7856 195.872 55.9856 190.672C61.3388 188.187 62.7931 183.775 62.3795 179.172M35.9856 176.672C29.2988 164.101 26.04 151.664 24.9573 140.172M56.9856 165.672C53.4856 156.839 46.8856 136.972 48.4856 128.172M56.9856 165.672C59.2477 168.891 61.9277 174.145 62.3795 179.172M48.4856 128.172C49.6856 109.772 36.8755 100.506 30.3205 98.1722M48.4856 128.172L73.9856 172.172M30.3205 98.1722C28.2665 103.646 26.4194 110.445 25.3895 118.172M24.7898 138.172C24.8384 138.836 24.8941 139.502 24.9573 140.172M24.7898 138.172C24.2683 131.05 24.5705 124.318 25.3895 118.172M62.3795 179.172L73.9856 172.172M73.9856 172.172L107.986 229.172M54.9856 93.1722C61.4856 91.0055 75.8856 84.9722 81.4856 78.1722M165.986 98.6722C165.986 98.5055 164.186 96.0722 156.986 87.6722C150.783 80.1321 143.499 74.2497 135.986 69.7047M165.986 98.6722L146.986 113.672M165.986 98.6722C170.986 104.172 178.386 117.272 167.986 125.672C163.911 128.001 159.671 126.658 155.986 123.973M146.986 113.672C140.986 106.839 126.886 92.0722 118.486 87.6722M146.986 113.672C148.788 116.761 152.074 121.123 155.986 123.973M118.486 87.6722C100.886 77.6722 99.4856 62.8787 100.986 56.732M118.486 87.6722L144.368 131.172M100.986 56.732C107.366 57.8259 115.067 59.8434 123.059 63.1722M135.986 69.7047C133.831 68.4015 131.658 67.2082 129.486 66.1173M177.986 187.672L144.368 131.172M177.986 187.672L156.986 201.172C154.819 203.172 151.386 208.772 154.986 215.172M177.986 187.672C181.152 186.672 188.586 186.372 192.986 193.172C197.386 199.972 194.486 206.339 192.486 208.672C186.152 212.672 172.686 221.172 169.486 223.172C165.086 226.372 161.319 224.506 159.986 223.172L154.986 215.172M144.368 131.172L155.986 123.973M154.986 215.172L141.186 192.172M142.486 220.672C138.886 214.672 132.319 215.839 129.486 217.172L107.986 229.172M142.486 220.672L147.986 229.672C148.652 230.839 149.286 233.672 146.486 235.672C143.686 237.672 129.652 246.172 122.986 250.172C119.319 252.339 110.786 254.372 105.986 245.172C101.186 235.972 105.319 230.672 107.986 229.172M142.486 220.672C140.908 217.99 138.608 214.189 135.986 209.857C132.881 204.726 129.326 198.85 125.986 193.206M133.686 179.672L129.486 172.672C126.486 166.172 112.986 170.172 118.486 180.172C120.581 183.982 123.209 188.514 125.986 193.206M133.686 179.672L143.986 173.172M133.686 179.672L141.186 192.172M141.186 192.172L158.486 180.672M125.986 193.206L109.486 203.672M24.9573 140.172H35.4856L35.9856 118.172H25.3895M129.486 66.1173L125.986 71.6722M129.486 66.1173C127.336 65.0378 125.187 64.0585 123.059 63.1722M123.059 63.1722L117.486 72.1722M60.7013 122.172L59.4856 120.172C55.5954 113.772 59.5313 108.839 61.9856 107.172C68.8189 103.006 84.1856 93.6722 90.9856 89.6722C97.7856 85.6722 102.486 89.3388 103.986 91.6722C107.319 97.1722 114.986 109.972 118.986 117.172C122.986 124.372 119.652 128.506 117.486 129.672C110.486 133.839 94.8856 143.172 88.4856 147.172C82.0856 151.172 76.8189 147.839 74.9856 145.672L67.6915 133.672M60.7013 122.172L88.4856 105.172M60.7013 122.172L67.6915 133.672M67.6915 133.672L84.9856 122.672M37.9856 75.6722C44.6522 74.5055 61.8855 68.1722 77.4855 52.1722C80.6855 12.5722 51.1522 9.67218 35.9856 13.1722C28.4856 15.3388 13.5856 24.5722 13.9856 44.1722C14.3856 63.7722 30.1522 73.3388 37.9856 75.6722ZM101.986 117.172C103.986 115.839 107.486 116.672 108.486 119.172C109.086 120.672 109.486 123.172 107.486 124.672C107.019 125.022 103.736 126.672 101.486 123.672C99.9856 121.672 99.9856 118.506 101.986 117.172Z" stroke="black" stroke-width="2" stroke-linejoin="round"/>
<path d="M208.986 127.672C207.386 137.672 197.986 142.172 193.486 143.172C198.652 145.506 207.986 152.172 208.986 161.172C210.986 152.672 215.986 147.672 223.486 143.172C216.986 141.172 210.986 133.672 208.986 127.672Z" fill="#FFC700"/>
<path d="M226.986 117.672C226.186 112.072 219.986 108.672 216.986 107.672C219.652 107.172 224.886 104.272 226.486 96.6722C226.886 103.072 233.152 106.672 235.986 107.672C230.786 108.472 227.819 114.672 226.986 117.672Z" fill="#FFC700"/>
<path d="M20.9856 215.172C19.7856 222.772 13.8189 225.339 10.9856 225.672C16.5856 226.072 19.9856 232.506 20.9856 235.672C21.8189 232.672 24.7856 226.472 29.9856 225.672C24.3856 224.872 21.6523 218.339 20.9856 215.172Z" fill="#FFC700"/>
<path d="M208.986 127.672C207.386 137.672 197.986 142.172 193.486 143.172C198.652 145.506 207.986 152.172 208.986 161.172C210.986 152.672 215.986 147.672 223.486 143.172C216.986 141.172 210.986 133.672 208.986 127.672Z" stroke="black" stroke-width="2" stroke-miterlimit="1" stroke-linejoin="round"/>
<path d="M226.986 117.672C226.186 112.072 219.986 108.672 216.986 107.672C219.652 107.172 224.886 104.272 226.486 96.6722C226.886 103.072 233.152 106.672 235.986 107.672C230.786 108.472 227.819 114.672 226.986 117.672Z" stroke="black" stroke-width="2" stroke-miterlimit="1" stroke-linejoin="round"/>
<path d="M20.9856 215.172C19.7856 222.772 13.8189 225.339 10.9856 225.672C16.5856 226.072 19.9856 232.506 20.9856 235.672C21.8189 232.672 24.7856 226.472 29.9856 225.672C24.3856 224.872 21.6523 218.339 20.9856 215.172Z" stroke="black" stroke-width="2" stroke-miterlimit="1" stroke-linejoin="round"/>
</svg>
