<svg width="200" height="200" viewBox="0 0 295 295" fill="none" xmlns="http://www.w3.org/2000/svg">
<path d="M251.33 43.0759C255.386 47.1315 257.469 53.6674 256.808 63.0404C256.149 72.3965 252.774 83.9248 246.753 96.9334C234.731 122.912 212.633 153.782 183.208 183.208C153.782 212.633 122.912 234.731 96.9333 246.753C83.9248 252.774 72.3965 256.149 63.0404 256.808C53.6674 257.469 47.1314 255.386 43.0759 251.33C39.0204 247.274 36.9371 240.738 37.5978 231.366C38.2573 222.009 41.6323 210.481 47.6524 197.473C59.6747 171.494 81.7726 140.624 111.198 111.198C140.624 81.7726 171.494 59.6747 197.473 47.6524C210.481 41.6324 222.009 38.2573 231.366 37.5978C240.738 36.9371 247.274 39.0204 251.33 43.0759Z" stroke="black" stroke-width="10"/>
<circle cx="146.158" cy="146.158" r="110" fill="#FE6700" stroke="black" stroke-width="10"/>
<circle cx="109.658" cy="178.658" r="12.5" fill="#4D1489" stroke="black" stroke-width="10"/>
<circle cx="196.158" cy="127.158" r="20" fill="#4D1489" stroke="black" stroke-width="10"/>
<rect x="141.158" y="201.158" width="142" height="82" rx="11" fill="white" stroke="black" stroke-width="10"/>
<path d="M48.6584 197.158C54.1584 183.658 72.2584 149.458 100.658 120.658M196.658 47.6584C181.658 54.1584 150.66 71.5584 123.158 99.1584" stroke="black" stroke-width="10" stroke-linecap="round"/>
<circle cx="112.158" cy="110.158" r="5" fill="black"/>
<path d="M186.198 256.554C185.142 256.554 184.306 256.261 183.69 255.674C183.104 255.088 182.81 254.237 182.81 253.122V250.614H172.954C171.869 250.614 171.004 250.38 170.358 249.91C169.713 249.412 169.39 248.664 169.39 247.666C169.39 247.08 169.522 246.478 169.786 245.862C170.05 245.246 170.52 244.484 171.194 243.574L182.59 226.986C183.089 226.253 183.646 225.696 184.262 225.314C184.878 224.933 185.582 224.742 186.374 224.742C187.313 224.742 188.061 225.036 188.618 225.622C189.205 226.18 189.498 227.03 189.498 228.174V245.246H191.126C192.094 245.246 192.828 245.481 193.326 245.95C193.825 246.39 194.074 247.05 194.074 247.93C194.074 248.781 193.825 249.441 193.326 249.91C192.857 250.38 192.124 250.614 191.126 250.614H189.498V253.122C189.498 254.237 189.205 255.088 188.618 255.674C188.061 256.261 187.254 256.554 186.198 256.554ZM182.81 245.246V233.146H184.086L174.714 246.918V245.246H182.81ZM212.141 256.642C208.387 256.642 205.512 255.249 203.517 252.462C201.552 249.646 200.569 245.672 200.569 240.538C200.569 237.106 201.009 234.217 201.889 231.87C202.799 229.494 204.104 227.705 205.805 226.502C207.536 225.27 209.648 224.654 212.141 224.654C215.925 224.654 218.8 226.018 220.765 228.746C222.731 231.445 223.713 235.376 223.713 240.538C223.713 243.97 223.259 246.889 222.349 249.294C221.469 251.67 220.179 253.489 218.477 254.75C216.776 256.012 214.664 256.642 212.141 256.642ZM212.141 251.098C213.843 251.098 215.104 250.262 215.925 248.59C216.747 246.889 217.157 244.205 217.157 240.538C217.157 236.872 216.747 234.232 215.925 232.618C215.104 231.005 213.843 230.198 212.141 230.198C210.44 230.198 209.179 231.005 208.357 232.618C207.536 234.232 207.125 236.872 207.125 240.538C207.125 244.205 207.536 246.889 208.357 248.59C209.179 250.262 210.44 251.098 212.141 251.098ZM247.764 256.554C246.708 256.554 245.872 256.261 245.256 255.674C244.669 255.088 244.376 254.237 244.376 253.122V250.614H234.52C233.435 250.614 232.569 250.38 231.924 249.91C231.279 249.412 230.956 248.664 230.956 247.666C230.956 247.08 231.088 246.478 231.352 245.862C231.616 245.246 232.085 244.484 232.76 243.574L244.156 226.986C244.655 226.253 245.212 225.696 245.828 225.314C246.444 224.933 247.148 224.742 247.94 224.742C248.879 224.742 249.627 225.036 250.184 225.622C250.771 226.18 251.064 227.03 251.064 228.174V245.246H252.692C253.66 245.246 254.393 245.481 254.892 245.95C255.391 246.39 255.64 247.05 255.64 247.93C255.64 248.781 255.391 249.441 254.892 249.91C254.423 250.38 253.689 250.614 252.692 250.614H251.064V253.122C251.064 254.237 250.771 255.088 250.184 255.674C249.627 256.261 248.82 256.554 247.764 256.554ZM244.376 245.246V233.146H245.652L236.28 246.918V245.246H244.376Z" fill="black"/>
</svg>
