<svg width="22" height="22" viewBox="0 0 22 22" fill="none" xmlns="http://www.w3.org/2000/svg">
<circle cx="11" cy="11" r="11" fill="#F00000"/>
<path d="M14.6906 7.25312C14.3531 6.91562 13.8281 6.91562 13.4906 7.25312L11.2406 9.54062L8.95312 7.25312C8.61562 6.91562 8.09062 6.91562 7.75312 7.25312C7.41562 7.59062 7.41562 8.11562 7.75312 8.45312L10.0406 10.7406L7.75312 13.0281C7.41562 13.3656 7.41562 13.8906 7.75312 14.2281C7.90312 14.3781 8.12812 14.4906 8.35312 14.4906C8.57812 14.4906 8.80312 14.4156 8.95312 14.2281L11.2406 11.9406L13.5281 14.2281C13.6781 14.3781 13.9031 14.4906 14.1281 14.4906C14.3531 14.4906 14.5781 14.4156 14.7281 14.2281C15.0656 13.8906 15.0656 13.3656 14.7281 13.0281L12.4406 10.7406L14.7281 8.45312C15.0281 8.11562 15.0281 7.59062 14.6906 7.25312Z" fill="#FEFEFE"/>
</svg>
